<?xml version="1.0" encoding="utf-8"?>
<!-- Generator: Adobe Illustrator 16.0.0, SVG Export Plug-In . SVG Version: 6.00 Build 0)  -->
<!DOCTYPE svg PUBLIC "-//W3C//DTD SVG 1.1//EN" "http://www.w3.org/Graphics/SVG/1.1/DTD/svg11.dtd">
<svg version="1.1" id="圖層_1" xmlns="http://www.w3.org/2000/svg" xmlns:xlink="http://www.w3.org/1999/xlink" x="0px" y="0px"
	 width="480px" height="480px" viewBox="0 0 480 480" enable-background="new 0 0 480 480" xml:space="preserve">
<g>
	<g>
		
			<line fill="none" stroke="#040000" stroke-width="8" stroke-linecap="round" stroke-linejoin="round" stroke-miterlimit="10" x1="180.101" y1="187.673" x2="180.101" y2="264.091"/>
		
			<line fill="none" stroke="#040000" stroke-width="8" stroke-linecap="round" stroke-linejoin="round" stroke-miterlimit="10" x1="180.101" y1="187.673" x2="211.181" y2="257.484"/>
		
			<line fill="none" stroke="#040000" stroke-width="8" stroke-linecap="round" stroke-linejoin="round" stroke-miterlimit="10" x1="180.101" y1="187.673" x2="236.891" y2="238.792"/>
		
			<line fill="none" stroke="#040000" stroke-width="8" stroke-linecap="round" stroke-linejoin="round" stroke-miterlimit="10" x1="180.101" y1="187.673" x2="252.785" y2="211.293"/>
		
			<line fill="none" stroke="#040000" stroke-width="8" stroke-linecap="round" stroke-linejoin="round" stroke-miterlimit="10" x1="180.101" y1="187.673" x2="256.105" y2="179.689"/>
		
			<line fill="none" stroke="#040000" stroke-width="8" stroke-linecap="round" stroke-linejoin="round" stroke-miterlimit="10" x1="180.101" y1="187.673" x2="246.293" y2="149.466"/>
		
			<line fill="none" stroke="#040000" stroke-width="8" stroke-linecap="round" stroke-linejoin="round" stroke-miterlimit="10" x1="180.101" y1="187.673" x2="225.024" y2="125.848"/>
		
			<line fill="none" stroke="#040000" stroke-width="8" stroke-linecap="round" stroke-linejoin="round" stroke-miterlimit="10" x1="180.101" y1="187.673" x2="195.995" y2="112.937"/>
		
			<line fill="none" stroke="#040000" stroke-width="8" stroke-linecap="round" stroke-linejoin="round" stroke-miterlimit="10" x1="180.101" y1="187.673" x2="164.206" y2="112.937"/>
		
			<line fill="none" stroke="#040000" stroke-width="8" stroke-linecap="round" stroke-linejoin="round" stroke-miterlimit="10" x1="180.101" y1="187.673" x2="135.177" y2="125.848"/>
		
			<line fill="none" stroke="#040000" stroke-width="8" stroke-linecap="round" stroke-linejoin="round" stroke-miterlimit="10" x1="180.101" y1="187.673" x2="113.908" y2="149.466"/>
		
			<line fill="none" stroke="#040000" stroke-width="8" stroke-linecap="round" stroke-linejoin="round" stroke-miterlimit="10" x1="180.101" y1="187.673" x2="104.096" y2="179.689"/>
		
			<line fill="none" stroke="#040000" stroke-width="8" stroke-linecap="round" stroke-linejoin="round" stroke-miterlimit="10" x1="180.101" y1="187.673" x2="107.415" y2="211.293"/>
		
			<line fill="none" stroke="#040000" stroke-width="8" stroke-linecap="round" stroke-linejoin="round" stroke-miterlimit="10" x1="180.101" y1="187.673" x2="123.311" y2="238.792"/>
		
			<line fill="none" stroke="#040000" stroke-width="8" stroke-linecap="round" stroke-linejoin="round" stroke-miterlimit="10" x1="180.101" y1="187.673" x2="149.02" y2="257.484"/>
	</g>
</g>
<circle fill="#FFFFFF" stroke="#040000" stroke-width="8" stroke-miterlimit="10" cx="180.101" cy="187.609" r="42.001"/>
<path fill="none" stroke="#000000" stroke-width="8" stroke-miterlimit="10" d="M272.159,187.61
	c0-50.842-41.216-92.059-92.059-92.059s-92.059,41.217-92.059,92.059c0,50.842,41.216,92.058,92.059,92.058
	c1.598,0,3.187-0.04,4.763-0.12c0,0,31.465-0.091,36.665-33.359"/>
<circle fill="#FFFFFF" stroke="#040000" stroke-width="8" stroke-miterlimit="10" cx="180.101" cy="187.609" r="20.54"/>
<path fill="#FFFFFF" stroke="#000000" stroke-width="8" stroke-miterlimit="10" d="M280.571,186.865
	c-49.861,9.259-87.614,52.984-87.614,105.526c0,59.279,48.055,107.334,107.334,107.334s107.334-48.055,107.334-107.334
	c0-59.278-48.055-107.334-107.334-107.334L280.571,186.865z"/>
<path fill="none" stroke="#000000" stroke-width="8" stroke-miterlimit="10" d="M199.175,293.253
	c-4.419,0.792-8.932,1.314-13.521,1.549"/>
<path fill="#FFFFFF" stroke="#000000" stroke-width="8" stroke-miterlimit="10" d="M286.601,201.007
	c4.343-0.627,8.783-0.951,13.299-0.951c50.995,0,92.335,41.341,92.335,92.335c0,50.995-41.34,92.335-92.335,92.335
	s-92.335-41.34-92.335-92.335"/>
<path fill="none" stroke="#000000" stroke-width="8" stroke-miterlimit="10" d="M185.654,294.803
	c-1.839,0.094-3.69,0.141-5.554,0.141c-59.278,0-107.334-48.055-107.334-107.333c0-59.278,48.056-107.334,107.334-107.334
	c59.279,0,107.334,48.056,107.334,107.334c0,52.771-38.08,96.646-88.26,105.644"/>
<path fill="none" stroke="#040000" stroke-width="8" stroke-linecap="round" stroke-linejoin="round" stroke-miterlimit="10" d="
	M306.324,241.807c9.447,7.56,15.505,19.178,15.505,32.219c0,22.783-18.472,41.254-41.255,41.254c-11.098,0-21.165-4.392-28.58-11.52
	c4.019,25.64,26.202,45.257,52.971,45.257c29.614,0,53.623-24.009,53.623-53.624C358.588,266.234,335.309,242.53,306.324,241.807z"
	/>
<circle fill="#040000" stroke="#040000" stroke-width="8" stroke-linecap="round" stroke-linejoin="round" stroke-miterlimit="10" cx="241.605" cy="237.807" r="9.241"/>
<circle fill="#040000" stroke="#040000" stroke-width="8" stroke-linecap="round" stroke-linejoin="round" stroke-miterlimit="10" cx="264.667" cy="212.593" r="3.861"/>
<circle fill="#040000" stroke="#040000" stroke-width="8" stroke-linecap="round" stroke-linejoin="round" stroke-miterlimit="10" cx="218.94" cy="264.32" r="3.861"/>
<path fill="#FFFFFF" stroke="#000000" stroke-width="8" stroke-miterlimit="10" d="M280.18,186.865
	c6.393-1.188,12.983-1.808,19.72-1.808"/>
<polygon fill="#040000" stroke="#040000" stroke-width="5" stroke-linecap="round" stroke-linejoin="round" stroke-miterlimit="10" points="
	294.889,269.351 292.853,276.689 298.285,282.028 290.911,283.935 289.006,291.307 283.668,285.874 276.33,287.91 278.366,280.571 
	272.934,275.233 280.307,273.33 282.213,265.955 287.55,271.388 "/>
</svg>
