<?xml version="1.0" encoding="utf-8"?>
<!-- Generator: Adobe Illustrator 16.0.0, SVG Export Plug-In . SVG Version: 6.00 Build 0)  -->
<!DOCTYPE svg PUBLIC "-//W3C//DTD SVG 1.1//EN" "http://www.w3.org/Graphics/SVG/1.1/DTD/svg11.dtd">
<svg version="1.1" id="圖層_1" xmlns="http://www.w3.org/2000/svg" xmlns:xlink="http://www.w3.org/1999/xlink" x="0px" y="0px"
	 width="480px" height="480px" viewBox="0 0 480 480" enable-background="new 0 0 480 480" xml:space="preserve">
<path fill="#B3B3B3" d="M198.469,289.316c5.219-0.936,10.274-2.274,15.164-3.941c35.233-12.014,61.212-42.176,68.024-78.653
	c0.98-5.247,1.553-10.625,1.71-16.097l-2.245,0.206c-47.848,8.971-82.783,50.214-84.103,98.721
	C197.503,289.472,197.988,289.401,198.469,289.316L198.469,289.316z M264.667,204.733c4.335,0,7.861,3.526,7.861,7.86
	c0,4.335-3.526,7.861-7.861,7.861s-7.861-3.526-7.861-7.861C256.806,208.259,260.332,204.733,264.667,204.733z M241.605,224.566
	c7.273,0,13.193,5.896,13.237,13.16c0,0.027,0.004,0.053,0.004,0.08c0,6.675-4.971,12.198-11.401,13.098
	c-0.604,0.085-1.214,0.144-1.84,0.144c-7.301,0-13.241-5.94-13.241-13.241S234.305,224.566,241.605,224.566z M218.94,256.459
	c4.335,0,7.861,3.526,7.861,7.861s-3.526,7.861-7.861,7.861s-7.861-3.526-7.861-7.861S214.605,256.459,218.94,256.459z"/>
<path fill="#9FA0A0" d="M299.899,380.726c48.708,0,88.335-39.627,88.335-88.335s-39.627-88.335-88.335-88.335
	c-3.266,0-6.543,0.183-9.779,0.539c-6.504,42.507-37.041,77.664-78.53,89.815C212.668,342.188,251.866,380.726,299.899,380.726z
	 M270.519,274.586c0.233-0.87,0.918-1.548,1.79-1.773l5.946-1.535l1.537-5.948c0.226-0.872,0.903-1.556,1.773-1.789
	c0.87-0.23,1.799,0.02,2.431,0.663l4.305,4.382l5.919-1.644c0.869-0.238,1.799,0.005,2.437,0.642s0.883,1.567,0.642,2.436
	l-1.643,5.92l4.382,4.307c0.643,0.632,0.896,1.561,0.663,2.431s-0.917,1.548-1.789,1.773l-5.948,1.537l-1.536,5.946
	c-0.226,0.872-0.903,1.556-1.773,1.789c-0.214,0.057-0.432,0.085-0.647,0.085c-0.662,0-1.307-0.263-1.783-0.748l-4.306-4.382
	l-5.919,1.643c-0.865,0.242-1.8-0.005-2.436-0.642c-0.638-0.637-0.883-1.567-0.642-2.436l1.643-5.92l-4.382-4.306
	C270.539,276.385,270.285,275.456,270.519,274.586z M250.146,300.212c1.525-0.791,3.383-0.525,4.621,0.664
	c6.979,6.709,16.144,10.403,25.808,10.403c20.542,0,37.255-16.712,37.255-37.254c0-11.369-5.104-21.975-14.004-29.096
	c-1.341-1.072-1.848-2.881-1.259-4.494c0.577-1.582,2.081-2.629,3.757-2.629c0.034,0,0.067,0,0.101,0.001
	c15.084,0.376,29.205,6.532,39.762,17.333c10.577,10.822,16.402,25.117,16.402,40.252c0,31.774-25.85,57.624-57.623,57.624
	c-13.818,0-27.183-4.967-37.63-13.985c-10.338-8.923-17.188-21.229-19.293-34.652C247.776,302.683,248.623,301.006,250.146,300.212z
	"/>
<path fill="#9FA0A0" d="M180.101,99.551c-48.556,0-88.059,39.503-88.059,88.059c0,48.555,39.503,88.058,88.059,88.058
	c1.524,0,3.059-0.039,4.56-0.115l0.191-0.005c0.303-0.003,2.448-0.052,5.508-0.669c1.771-11.172,5.206-21.834,10.072-31.704
	l-5.376-12.075c-3.483,1.201-7.152,1.995-10.955,2.325v30.666c0,2.209-1.791,4-4,4s-4-1.791-4-4v-30.666
	c-3.803-0.33-7.472-1.124-10.956-2.325l-12.471,28.011c-0.663,1.489-2.125,2.374-3.656,2.374c-0.544,0-1.097-0.111-1.625-0.347
	c-2.019-0.898-2.926-3.263-2.027-5.281l12.472-28.013c-3.289-1.827-6.329-4.046-9.063-6.592l-22.788,20.512
	c-0.764,0.688-1.721,1.027-2.675,1.027c-1.094,0-2.185-0.446-2.974-1.324c-1.479-1.642-1.346-4.171,0.297-5.649l22.775-20.501
	c-2.249-2.97-4.146-6.218-5.629-9.687l-29.13,9.466c-0.411,0.133-0.827,0.197-1.237,0.197c-1.686,0-3.254-1.074-3.803-2.765
	c-0.684-2.101,0.467-4.358,2.567-5.041l29.125-9.464c-0.779-3.349-1.204-6.833-1.204-10.415c0-0.25,0.015-0.496,0.019-0.745
	l-30.44-3.198c-2.197-0.231-3.791-2.199-3.561-4.396c0.231-2.196,2.195-3.79,4.396-3.56l30.423,3.196
	c0.72-3.742,1.894-7.323,3.463-10.685l-26.491-15.291c-1.913-1.104-2.568-3.551-1.464-5.464c1.104-1.914,3.55-2.569,5.464-1.465
	l26.495,15.293c2.158-3.083,4.685-5.888,7.515-8.355l-17.978-24.741c-1.298-1.787-0.902-4.289,0.885-5.587
	c1.787-1.297,4.288-0.903,5.588,0.885l17.961,24.719c3.191-1.93,6.636-3.48,10.269-4.594l-6.349-29.854
	c-0.46-2.161,0.919-4.285,3.08-4.745c2.161-0.458,4.285,0.92,4.744,3.081l6.351,29.862c1.848-0.227,3.725-0.357,5.632-0.357
	s3.784,0.13,5.632,0.357l6.351-29.862c0.459-2.161,2.581-3.54,4.744-3.081c2.161,0.459,3.54,2.584,3.08,4.745l-6.349,29.854
	c3.633,1.114,7.077,2.665,10.269,4.594l17.961-24.719c1.3-1.787,3.803-2.182,5.588-0.885c1.787,1.298,2.183,3.8,0.885,5.587
	l-17.978,24.741c2.83,2.467,5.356,5.272,7.515,8.355l26.495-15.293c1.913-1.103,4.36-0.449,5.464,1.465
	c1.104,1.913,0.449,4.359-1.464,5.464l-26.491,15.291c1.569,3.362,2.743,6.943,3.463,10.685l30.423-3.196
	c2.186-0.232,4.166,1.363,4.396,3.56s-1.363,4.165-3.561,4.396l-30.44,3.198c0.004,0.249,0.019,0.495,0.019,0.745
	c0,3.583-0.425,7.066-1.204,10.416l10.927,3.55c9.681-6.882,20.557-12.253,32.312-15.782
	C267.165,138.073,228.049,99.551,180.101,99.551z"/>
<path fill="#DCDDDD" d="M188.998,290.561c0.04-2.503,0.151-4.991,0.356-7.457c-2.259,0.351-3.831,0.426-4.32,0.44
	c-1.626,0.082-3.286,0.124-4.934,0.124c-52.967,0-96.059-43.091-96.059-96.058s43.092-96.059,96.059-96.059
	c51.663,0,93.924,40.999,95.974,92.167c1.124-0.249,2.251-0.492,3.39-0.708l-0.015-0.079c1.276-0.237,2.562-0.445,3.851-0.637
	c-2.776-54.519-48.003-98.019-103.199-98.019c-56.979,0-103.334,46.355-103.334,103.334c0,56.978,46.355,103.333,103.334,103.333
	c1.787,0,3.587-0.046,5.35-0.136v-0.001C186.632,290.746,187.815,290.661,188.998,290.561z"/>
<path fill="#9FA0A0" d="M202.364,227.845l2.907,6.531c2.433-3.985,5.11-7.808,8.016-11.45l-1.86-1.674
	C208.693,223.799,205.652,226.018,202.364,227.845z"/>
<path fill="#9FA0A0" d="M216.791,215.318l1.701,1.531c3.043-3.299,6.278-6.424,9.705-9.34l-5.777-1.877
	C220.938,209.1,219.039,212.348,216.791,215.318z"/>
<path fill="#EFEFEF" d="M180.101,149.609c-20.954,0-38.001,17.047-38.001,38s17.047,38,38.001,38s38.001-17.047,38.001-38
	S201.055,149.609,180.101,149.609z M180.101,212.149c-13.531,0-24.54-11.009-24.54-24.54s11.009-24.54,24.54-24.54
	s24.54,11.009,24.54,24.54S193.632,212.149,180.101,212.149z"/>
<path fill="#040000" d="M226.102,187.609c0-0.25-0.015-0.496-0.019-0.745l30.44-3.198c2.197-0.231,3.791-2.199,3.561-4.396
	s-2.211-3.792-4.396-3.56l-30.423,3.196c-0.72-3.742-1.894-7.323-3.463-10.685l26.491-15.291c1.913-1.104,2.568-3.551,1.464-5.464
	c-1.104-1.914-3.551-2.568-5.464-1.465l-26.495,15.293c-2.158-3.083-4.685-5.888-7.515-8.355l17.978-24.741
	c1.298-1.787,0.902-4.289-0.885-5.587c-1.785-1.297-4.288-0.902-5.588,0.885l-17.961,24.719c-3.191-1.929-6.636-3.48-10.269-4.594
	l6.349-29.854c0.46-2.161-0.919-4.285-3.08-4.745c-2.163-0.459-4.285,0.92-4.744,3.081l-6.351,29.862
	c-1.848-0.227-3.725-0.357-5.632-0.357s-3.784,0.13-5.632,0.357l-6.351-29.862c-0.459-2.161-2.583-3.539-4.744-3.081
	c-2.161,0.459-3.54,2.584-3.08,4.745l6.349,29.854c-3.633,1.114-7.077,2.664-10.269,4.594l-17.961-24.719
	c-1.3-1.788-3.801-2.182-5.588-0.885c-1.787,1.298-2.183,3.8-0.885,5.587l17.978,24.741c-2.83,2.467-5.356,5.272-7.515,8.355
	l-26.495-15.293c-1.914-1.104-4.36-0.449-5.464,1.465c-1.104,1.913-0.449,4.359,1.464,5.464l26.491,15.291
	c-1.569,3.362-2.743,6.943-3.463,10.685l-30.423-3.196c-2.201-0.23-4.165,1.364-4.396,3.56c-0.23,2.197,1.363,4.165,3.561,4.396
	l30.44,3.198c-0.004,0.249-0.019,0.495-0.019,0.745c0,3.583,0.425,7.066,1.204,10.415l-29.125,9.464
	c-2.101,0.683-3.251,2.939-2.567,5.041c0.549,1.69,2.117,2.765,3.803,2.765c0.41,0,0.826-0.063,1.237-0.197l29.13-9.466
	c1.482,3.468,3.38,6.716,5.629,9.687l-22.775,20.501c-1.643,1.478-1.775,4.007-0.297,5.649c0.789,0.878,1.88,1.324,2.974,1.324
	c0.954,0,1.911-0.339,2.675-1.027l22.788-20.512c2.733,2.546,5.773,4.766,9.063,6.592l-12.472,28.013
	c-0.898,2.019,0.009,4.383,2.027,5.281c0.528,0.235,1.081,0.347,1.625,0.347c1.531,0,2.993-0.885,3.656-2.374l12.471-28.011
	c3.484,1.201,7.153,1.995,10.956,2.325v30.666c0,2.209,1.791,4,4,4s4-1.791,4-4v-30.666c3.803-0.33,7.472-1.124,10.955-2.325
	l5.376,12.075c1.483-3.01,3.098-5.945,4.84-8.798l-2.907-6.531c3.288-1.827,6.329-4.046,9.063-6.593l1.86,1.674
	c1.664-2.086,3.396-4.116,5.205-6.078l-1.701-1.531c2.248-2.97,4.146-6.218,5.629-9.687l5.777,1.877
	c2.45-2.084,4.995-4.063,7.627-5.934l-10.927-3.55C225.677,194.675,226.102,191.192,226.102,187.609z M180.101,225.609
	c-20.954,0-38.001-17.047-38.001-38s17.047-38,38.001-38s38.001,17.047,38.001,38S201.055,225.609,180.101,225.609z"/>
<path fill="#595757" d="M180.101,91.551c-52.967,0-96.059,43.092-96.059,96.059s43.092,96.058,96.059,96.058
	c1.647,0,3.308-0.042,4.934-0.124c0.489-0.015,2.062-0.09,4.32-0.44c0.229-2.771,0.574-5.51,1.005-8.225
	c-3.06,0.617-5.205,0.666-5.508,0.669l-0.191,0.005c-1.501,0.076-3.035,0.115-4.56,0.115c-48.556,0-88.059-39.503-88.059-88.058
	c0-48.556,39.503-88.059,88.059-88.059c47.948,0,87.064,38.522,88.035,86.242c2.605-0.782,5.25-1.479,7.938-2.074
	C274.024,132.55,231.764,91.551,180.101,91.551z"/>
<path fill="#898989" d="M180.101,171.069c-9.12,0-16.54,7.42-16.54,16.54s7.42,16.54,16.54,16.54s16.54-7.42,16.54-16.54
	S189.221,171.069,180.101,171.069z"/>
<path fill="#040000" d="M180.101,163.069c-13.531,0-24.54,11.009-24.54,24.54s11.009,24.54,24.54,24.54s24.54-11.009,24.54-24.54
	S193.632,163.069,180.101,163.069z M180.101,204.149c-9.12,0-16.54-7.42-16.54-16.54s7.42-16.54,16.54-16.54s16.54,7.42,16.54,16.54
	S189.221,204.149,180.101,204.149z"/>
<path fill="#B5B5B6" d="M299.899,196.056c53.119,0,96.335,43.216,96.335,96.335s-43.216,96.335-96.335,96.335
	c-51.767,0-94.12-41.045-96.244-92.298c-1.252,0.269-2.505,0.536-3.774,0.764v-0.001c-0.926,0.166-1.858,0.312-2.791,0.454
	c2.745,54.547,47.984,98.08,103.201,98.08c56.979,0,103.334-46.355,103.334-103.334c0-56.919-46.256-103.238-103.152-103.334
	l-9.089,0.833c-0.045,2.208-0.146,4.404-0.317,6.582C293.999,196.206,296.952,196.056,299.899,196.056z"/>
<path fill="#727171" d="M300.291,181.057l-0.392,0.036v-0.036c-2.884,0-5.769,0.118-8.642,0.339
	c-2.667,0.205-5.323,0.506-7.958,0.899c-1.289,0.192-2.574,0.4-3.851,0.637l0.015,0.079c-1.139,0.216-2.266,0.459-3.39,0.708
	c-2.688,0.596-5.333,1.292-7.938,2.074c-11.755,3.529-22.631,8.9-32.312,15.782c-2.632,1.871-5.177,3.85-7.627,5.934
	c-3.427,2.916-6.662,6.041-9.705,9.34c-1.81,1.962-3.541,3.992-5.205,6.078c-2.905,3.642-5.583,7.464-8.016,11.45
	c-1.742,2.854-3.356,5.788-4.84,8.798c-4.866,9.87-8.301,20.532-10.072,31.704c-0.431,2.715-0.775,5.454-1.005,8.225
	c-0.205,2.466-0.316,4.954-0.356,7.457c2.689-0.229,5.371-0.573,8.021-1.009c1.319-48.507,36.255-89.75,84.103-98.721l2.245-0.206
	c0.003-0.075,0.003-0.15,0.005-0.226c2.654-0.426,5.329-0.757,8.022-0.977c-0.003,0.156-0.008,0.312-0.011,0.468l9.089-0.833
	c56.896,0.096,103.152,46.415,103.152,103.334c0,56.979-46.355,103.334-103.334,103.334c-55.217,0-100.456-43.533-103.201-98.08
	c-2.635,0.403-5.294,0.718-7.958,0.933c3.222,58.523,51.846,105.147,111.159,105.147c61.39,0,111.334-49.944,111.334-111.334
	S361.681,181.057,300.291,181.057z"/>
<path fill="#595757" d="M199.881,297.19L199.881,297.19c1.27-0.227,2.522-0.494,3.774-0.763c2.688-0.578,5.331-1.255,7.935-2.018
	c41.489-12.151,72.026-47.309,78.53-89.815c0.41-2.681,0.731-5.388,0.946-8.123c0.172-2.178,0.272-4.374,0.317-6.582
	c0.003-0.156,0.008-0.312,0.011-0.468c-2.693,0.22-5.368,0.551-8.022,0.977c-0.002,0.076-0.002,0.151-0.005,0.226
	c-0.157,5.472-0.729,10.85-1.71,16.097c-6.813,36.477-32.791,66.639-68.024,78.653c-4.89,1.667-9.945,3.006-15.164,3.941v-0.001
	c-0.48,0.086-0.966,0.156-1.449,0.236c-2.65,0.436-5.332,0.779-8.021,1.009c-1.183,0.101-2.366,0.186-3.548,0.246v0.001l0.408,7.989
	c1.091-0.056,2.183-0.132,3.273-0.22c2.664-0.215,5.323-0.529,7.958-0.933C198.022,297.502,198.955,297.356,199.881,297.19z"/>
<path fill="#727171" d="M299.899,388.726c53.119,0,96.335-43.216,96.335-96.335s-43.216-96.335-96.335-96.335
	c-2.947,0-5.9,0.15-8.833,0.417c-0.215,2.735-0.536,5.442-0.946,8.123c3.236-0.356,6.514-0.539,9.779-0.539
	c48.708,0,88.335,39.627,88.335,88.335s-39.627,88.335-88.335,88.335c-48.033,0-87.231-38.537-88.31-86.315
	c-2.604,0.763-5.247,1.439-7.935,2.018C205.779,347.681,248.133,388.726,299.899,388.726z"/>
<path fill="#595757" d="M76.767,187.61c0-56.979,46.355-103.334,103.334-103.334c55.196,0,100.423,43.5,103.199,98.019
	c2.635-0.394,5.291-0.694,7.958-0.899c-3.235-58.51-51.854-105.12-111.157-105.12c-61.39,0-111.334,49.944-111.334,111.334
	c0,61.389,49.944,111.333,111.334,111.333c1.923,0,3.859-0.049,5.758-0.146l-0.408-7.99c-1.763,0.09-3.563,0.136-5.35,0.136
	C123.122,290.943,76.767,244.588,76.767,187.61z"/>
<path fill="#E6E6E6" d="M304.965,345.017c27.362,0,49.623-22.262,49.623-49.624c0-23.39-15.791-42.805-37.525-48.146
	c5.655,7.676,8.767,16.994,8.767,26.778c0,24.953-20.301,45.254-45.255,45.254c-7.715,0-15.166-1.937-21.775-5.577
	C266.106,332.35,284.104,345.017,304.965,345.017z"/>
<path fill="#040000" d="M267.335,339.031c10.447,9.019,23.812,13.985,37.63,13.985c31.773,0,57.623-25.85,57.623-57.624
	c0-15.135-5.825-29.43-16.402-40.252c-10.557-10.801-24.678-16.956-39.762-17.333c-0.033-0.001-0.066-0.001-0.101-0.001
	c-1.676,0-3.18,1.047-3.757,2.629c-0.589,1.613-0.082,3.422,1.259,4.494c8.899,7.121,14.004,17.727,14.004,29.096
	c0,20.542-16.713,37.254-37.255,37.254c-9.664,0-18.829-3.694-25.808-10.403c-1.238-1.189-3.096-1.455-4.621-0.664
	c-1.522,0.794-2.369,2.471-2.104,4.167C250.146,317.802,256.997,330.108,267.335,339.031z M280.574,319.279
	c24.954,0,45.255-20.301,45.255-45.254c0-9.784-3.111-19.103-8.767-26.778c21.734,5.341,37.525,24.756,37.525,48.146
	c0,27.362-22.261,49.624-49.623,49.624c-20.861,0-38.858-12.667-46.166-31.314C265.408,317.343,272.859,319.279,280.574,319.279z"/>
<path fill="#040000" d="M241.605,251.048c0.626,0,1.236-0.059,1.84-0.144c6.431-0.899,11.401-6.423,11.401-13.098
	c0-0.027-0.004-0.053-0.004-0.08c-0.044-7.264-5.964-13.16-13.237-13.16c-7.301,0-13.241,5.939-13.241,13.24
	S234.305,251.048,241.605,251.048z"/>
<path fill="#040000" d="M264.667,220.455c4.335,0,7.861-3.526,7.861-7.861c0-4.334-3.526-7.86-7.861-7.86s-7.861,3.526-7.861,7.86
	C256.806,216.928,260.332,220.455,264.667,220.455z"/>
<path fill="#040000" d="M218.94,272.182c4.335,0,7.861-3.526,7.861-7.861s-3.526-7.861-7.861-7.861s-7.861,3.526-7.861,7.861
	S214.605,272.182,218.94,272.182z"/>
<path fill="#040000" d="M275.563,281.322l-1.643,5.92c-0.241,0.868,0.004,1.799,0.642,2.436c0.636,0.637,1.57,0.884,2.436,0.642
	l5.919-1.643l4.306,4.382c0.477,0.485,1.121,0.748,1.783,0.748c0.216,0,0.434-0.028,0.647-0.085c0.87-0.233,1.548-0.917,1.773-1.789
	l1.536-5.946l5.948-1.537c0.872-0.226,1.556-0.903,1.789-1.773s-0.021-1.799-0.663-2.431l-4.382-4.307l1.643-5.92
	c0.241-0.868-0.004-1.799-0.642-2.436s-1.567-0.88-2.437-0.642l-5.919,1.644l-4.305-4.382c-0.632-0.644-1.561-0.894-2.431-0.663
	c-0.87,0.233-1.548,0.917-1.773,1.789l-1.537,5.948l-5.946,1.535c-0.872,0.226-1.557,0.903-1.79,1.773s0.021,1.799,0.663,2.431
	L275.563,281.322z"/>
</svg>
